<?xml version="1.0" encoding="UTF-8"?><svg id="Ebene_1" xmlns="http://www.w3.org/2000/svg" viewBox="0 0 512 512"><defs><style>.cls-1{fill:#ec5b29;}</style></defs><circle class="cls-1" cx="256" cy="256" r="256"/><path d="M227.16,317.87v-44.61c0-5.51.2-11.18.63-16.99.42-5.82.87-10.71,1.35-14.66.48-3.96.78-6.48.9-7.55h-.72l-22.84,83.81h-31.12l-23.02-83.64h-.72c.12,1.08.45,3.57.99,7.46.54,3.9,1.05,8.75,1.53,14.57s.72,11.48.72,16.99v44.61h-36.5v-123.74h56.11l18.71,71.4h.72l18.53-71.4h54.13v123.74h-39.39Z"/><path d="M374.58,199.44c5.99,3.53,10.67,8.39,14.03,14.56,3.35,6.18,5.04,13.11,5.04,20.78v2.33c0,7.68-1.68,14.63-5.04,20.86-3.36,6.24-8.04,11.12-14.03,14.66-6,3.54-12.84,5.31-20.51,5.31h-29.68v39.93h-39.75v-123.74h69.42c7.67,0,14.51,1.77,20.51,5.31ZM324.4,248.98h16.36c4.2,0,7.35-1.08,9.45-3.23,2.09-2.16,3.15-5.09,3.15-8.81v-1.44c0-3.83-1.05-6.8-3.15-8.9-2.1-2.1-5.25-3.15-9.45-3.15h-16.36v25.53Z"/></svg>