<?xml version="1.0" encoding="UTF-8"?><svg id="Ebene_1" xmlns="http://www.w3.org/2000/svg" viewBox="0 0 512 512"><defs><style>.cls-1{fill:#ec5b29;}</style></defs><circle class="cls-1" cx="256" cy="256" r="256"/><path d="M223.78,325.14v-49.85c0-6.16.23-12.49.7-18.99.47-6.5.97-11.96,1.5-16.38.54-4.42.88-7.24,1.01-8.44h-.8l-25.52,93.66h-34.77l-25.73-93.46h-.8c.13,1.21.51,3.99,1.1,8.34.61,4.36,1.18,9.78,1.71,16.28s.8,12.83.8,18.99v49.85h-40.79v-138.28h62.7l20.9,79.79h.8l20.71-79.79h60.49v138.28h-44.01Z"/><path d="M388.51,192.79c6.7,3.95,11.92,9.38,15.68,16.27,3.75,6.9,5.63,14.65,5.63,23.22v2.61c0,8.58-1.88,16.35-5.63,23.32-3.75,6.97-8.98,12.43-15.68,16.38-6.71,3.96-14.34,5.93-22.92,5.93h-33.16v44.62h-44.42v-138.28h77.58c8.57,0,16.21,1.98,22.92,5.93ZM332.43,248.16h18.29c4.69,0,8.21-1.2,10.56-3.61,2.34-2.41,3.52-5.69,3.52-9.85v-1.61c0-4.29-1.18-7.6-3.52-9.94-2.35-2.35-5.86-3.52-10.56-3.52h-18.29v28.53Z"/></svg>