<?xml version="1.0" encoding="UTF-8"?>
<svg id="Ebene_1" xmlns="http://www.w3.org/2000/svg" version="1.1" viewBox="0 0 512 512">
  <!-- Generator: Adobe Illustrator 30.1.0, SVG Export Plug-In . SVG Version: 2.1.1 Build 136)  -->
  <defs>
    <style>
      .st0 {
        fill: #ff4d00;
      }
    </style>
  </defs>
  <circle class="st0" cx="256" cy="256" r="256"/>
  <path d="M223.8,325.1v-49.9c0-6.2.2-12.5.7-19s1-12,1.5-16.4c.5-4.4.9-7.2,1-8.4h-.8l-25.5,93.7h-34.8l-25.7-93.5h-.8c.1,1.2.5,4,1.1,8.3.6,4.4,1.2,9.8,1.7,16.3s.8,12.8.8,19v49.9h-40.8v-138.3h62.7l20.9,79.8h.8l20.7-79.8h60.5v138.3h-44,0Z"/>
  <path d="M388.5,192.8c6.7,3.9,11.9,9.4,15.7,16.3,3.8,6.9,5.6,14.6,5.6,23.2v2.6c0,8.6-1.9,16.4-5.6,23.3-3.8,7-9,12.4-15.7,16.4-6.7,4-14.3,5.9-22.9,5.9h-33.2v44.6h-44.4v-138.3h77.6c8.6,0,16.2,2,22.9,5.9h0ZM332.4,248.2h18.3c4.7,0,8.2-1.2,10.6-3.6,2.3-2.4,3.5-5.7,3.5-9.9v-1.6c0-4.3-1.2-7.6-3.5-9.9s-5.9-3.5-10.6-3.5h-18.3v28.5h0Z"/>
</svg>